<?xml version="1.0" standalone="no"?>
<!DOCTYPE svg PUBLIC "-//W3C//DTD SVG 20010904//EN"
 "http://www.w3.org/TR/2001/REC-SVG-20010904/DTD/svg10.dtd">
<svg version="1.0" xmlns="http://www.w3.org/2000/svg"
 width="1008.000000pt" height="1008.000000pt" viewBox="0 0 1008.000000 1008.000000"
 preserveAspectRatio="xMidYMid meet">
<metadata>
Created by potrace 1.11, written by Peter Selinger 2001-2013
</metadata>
<g transform="translate(0.000000,1008.000000) scale(0.100000,-0.100000)"
fill="#000000" stroke="none">
<path d="M2679 10076 c-2 -2 -66 -7 -141 -10 -76 -4 -148 -9 -160 -11 -13 -2
-61 -6 -108 -10 -46 -4 -87 -8 -90 -10 -3 -1 -32 -6 -65 -9 -33 -3 -69 -8 -80
-10 -11 -2 -60 -11 -110 -21 -440 -81 -880 -316 -1194 -635 -293 -299 -509
-699 -597 -1105 -21 -97 -20 -92 -33 -170 -18 -118 -20 -136 -31 -250 -31
-340 -33 -498 -33 -2790 0 -2210 3 -2480 28 -2745 3 -30 8 -80 11 -110 2 -30
7 -64 9 -75 2 -11 7 -42 10 -70 29 -230 112 -503 220 -720 127 -257 256 -438
443 -622 96 -94 291 -253 311 -253 4 0 16 -9 26 -20 10 -11 21 -20 26 -20 4 0
36 -18 71 -39 163 -99 360 -183 555 -236 123 -34 370 -79 493 -90 36 -3 81 -8
100 -10 148 -17 549 -20 2685 -20 2120 0 2544 3 2705 20 19 2 71 6 115 10 44
4 82 8 85 10 3 2 30 6 60 9 241 29 506 108 736 221 384 189 672 442 894 781
84 128 206 372 250 498 31 91 84 291 94 360 4 21 8 48 11 60 13 56 26 167 40
331 4 39 8 88 10 110 27 271 27 4938 0 5225 -1 19 -6 73 -9 120 -10 119 -18
191 -38 310 -5 36 -12 74 -13 85 -32 213 -142 510 -279 753 -102 181 -275 393
-436 537 -312 278 -740 484 -1140 550 -19 3 -46 8 -60 10 -14 3 -45 7 -70 10
-25 3 -61 7 -80 10 -74 10 -109 14 -190 20 -47 3 -112 9 -145 12 -65 7 -4879
15 -4886 9z"/>
</g>
</svg>
